<svg width="158pt" height="485pt"
 viewBox="0.00 0.00 158.11 484.60" xmlns="http://www.w3.org/2000/svg" xmlns:xlink="http://www.w3.org/1999/xlink">
<g id="graph0" class="graph" transform="scale(1 1) rotate(0) translate(4 480.6)">
<title>G</title>
<polygon fill="#ffffff" stroke="transparent" points="-4,4 -4,-480.6 154.1144,-480.6 154.1144,4 -4,4"/>
<text text-anchor="middle" x="75.0572" y="-58.6" font-family="Times,serif" font-size="14.00" fill="#000000">simpleTestNetwork</text>
<text text-anchor="middle" x="75.0572" y="-41.8" font-family="Times,serif" font-size="14.00" fill="#000000">Data lost : 0(0.0)</text>
<text text-anchor="middle" x="75.0572" y="-25" font-family="Times,serif" font-size="14.00" fill="#000000">Data Expired : 0(0.0)</text>
<text text-anchor="middle" x="75.0572" y="-8.2" font-family="Times,serif" font-size="14.00" fill="#000000">Data Processed :3(90.0)</text>
<!-- device -->
<g id="node1" class="node">
<title>device</title>
<polygon fill="none" stroke="#a020f0" points="2.5193,-367.3 2.5193,-476.1 147.5951,-476.1 147.5951,-367.3 2.5193,-367.3"/>
<text text-anchor="middle" x="75.0572" y="-459.5" font-family="Times,serif" font-size="14.00" fill="#000000">device</text>
<text text-anchor="middle" x="75.0572" y="-442.7" font-family="Times,serif" font-size="14.00" fill="#000000">Receipt data : 0(0.0)</text>
<text text-anchor="middle" x="75.0572" y="-425.9" font-family="Times,serif" font-size="14.00" fill="#000000">Transmit data : 3(90.0)</text>
<text text-anchor="middle" x="75.0572" y="-409.1" font-family="Times,serif" font-size="14.00" fill="#000000">Processed data :0(0.0)</text>
<text text-anchor="middle" x="75.0572" y="-392.3" font-family="Times,serif" font-size="14.00" fill="#000000">Lost data :0(0.0)</text>
<text text-anchor="middle" x="75.0572" y="-375.5" font-family="Times,serif" font-size="14.00" fill="#000000">Expired data :0</text>
</g>
<!-- server -->
<g id="node2" class="node">
<title>server</title>
<polygon fill="none" stroke="#00ff00" points="2.5193,-221.5 2.5193,-330.3 147.5951,-330.3 147.5951,-221.5 2.5193,-221.5"/>
<text text-anchor="middle" x="75.0572" y="-313.7" font-family="Times,serif" font-size="14.00" fill="#000000">server</text>
<text text-anchor="middle" x="75.0572" y="-296.9" font-family="Times,serif" font-size="14.00" fill="#000000">Receipt data : 3(90.0)</text>
<text text-anchor="middle" x="75.0572" y="-280.1" font-family="Times,serif" font-size="14.00" fill="#000000">Transmit data : 3(90.0)</text>
<text text-anchor="middle" x="75.0572" y="-263.3" font-family="Times,serif" font-size="14.00" fill="#000000">Processed data :0(0.0)</text>
<text text-anchor="middle" x="75.0572" y="-246.5" font-family="Times,serif" font-size="14.00" fill="#000000">Lost data :0(0.0)</text>
<text text-anchor="middle" x="75.0572" y="-229.7" font-family="Times,serif" font-size="14.00" fill="#000000">Expired data :0</text>
</g>
<!-- device&#45;&gt;server -->
<g id="edge1" class="edge">
<title>device&#45;&gt;server</title>
<path fill="none" stroke="#000000" d="M75.0572,-366.9946C75.0572,-358.3992 75.0572,-349.4432 75.0572,-340.6475"/>
<polygon fill="#000000" stroke="#000000" points="78.5573,-340.427 75.0572,-330.427 71.5573,-340.4271 78.5573,-340.427"/>
</g>
<!-- cluster -->
<g id="node3" class="node">
<title>cluster</title>
<polygon fill="none" stroke="#0000ff" points="1.5533,-75.7 1.5533,-184.5 148.5611,-184.5 148.5611,-75.7 1.5533,-75.7"/>
<text text-anchor="middle" x="75.0572" y="-167.9" font-family="Times,serif" font-size="14.00" fill="#000000">cluster</text>
<text text-anchor="middle" x="75.0572" y="-151.1" font-family="Times,serif" font-size="14.00" fill="#000000">Receipt data : 3(90.0)</text>
<text text-anchor="middle" x="75.0572" y="-134.3" font-family="Times,serif" font-size="14.00" fill="#000000">Transmit data : 0(0.0)</text>
<text text-anchor="middle" x="75.0572" y="-117.5" font-family="Times,serif" font-size="14.00" fill="#000000">Processed data :3(90.0)</text>
<text text-anchor="middle" x="75.0572" y="-100.7" font-family="Times,serif" font-size="14.00" fill="#000000">Lost data :0(0.0)</text>
<text text-anchor="middle" x="75.0572" y="-83.9" font-family="Times,serif" font-size="14.00" fill="#000000">Expired data :0</text>
</g>
<!-- server&#45;&gt;cluster -->
<g id="edge2" class="edge">
<title>server&#45;&gt;cluster</title>
<path fill="none" stroke="#000000" d="M75.0572,-221.1946C75.0572,-212.5992 75.0572,-203.6432 75.0572,-194.8475"/>
<polygon fill="#000000" stroke="#000000" points="78.5573,-194.627 75.0572,-184.627 71.5573,-194.6271 78.5573,-194.627"/>
</g>
</g>
</svg>
