<svg width="160pt" height="434pt"
 viewBox="0.00 0.00 160.08 434.20" xmlns="http://www.w3.org/2000/svg" xmlns:xlink="http://www.w3.org/1999/xlink">
<g id="graph0" class="graph" transform="scale(1 1) rotate(0) translate(4 430.2)">
<title>G</title>
<polygon fill="#ffffff" stroke="transparent" points="-4,4 -4,-430.2 156.0758,-430.2 156.0758,4 -4,4"/>
<text text-anchor="middle" x="76.0379" y="-58.6" font-family="Times,serif" font-size="14.00" fill="#000000">simpleTestNetwork</text>
<text text-anchor="middle" x="76.0379" y="-41.8" font-family="Times,serif" font-size="14.00" fill="#000000">Data lost : 0(0.0)</text>
<text text-anchor="middle" x="76.0379" y="-25" font-family="Times,serif" font-size="14.00" fill="#000000">Data Expired : 0(0.0)</text>
<text text-anchor="middle" x="76.0379" y="-8.2" font-family="Times,serif" font-size="14.00" fill="#000000">Data Processed :0(0.0)</text>
<!-- device -->
<g id="node1" class="node">
<title>device</title>
<polygon fill="none" stroke="#000000" points="0,-333.7 0,-425.7 152.0758,-425.7 152.0758,-333.7 0,-333.7"/>
<text text-anchor="middle" x="76.0379" y="-409.1" font-family="Times,serif" font-size="14.00" fill="#000000">device</text>
<text text-anchor="middle" x="76.0379" y="-392.3" font-family="Times,serif" font-size="14.00" fill="#000000">Receipt data : 0(0.0)</text>
<text text-anchor="middle" x="76.0379" y="-375.5" font-family="Times,serif" font-size="14.00" fill="#000000">Transmit data : 3(300.0)</text>
<text text-anchor="middle" x="76.0379" y="-358.7" font-family="Times,serif" font-size="14.00" fill="#000000">Processed data :0(0.0)</text>
<text text-anchor="middle" x="76.0379" y="-341.9" font-family="Times,serif" font-size="14.00" fill="#000000">Expired data :0</text>
</g>
<!-- server -->
<g id="node2" class="node">
<title>server</title>
<polygon fill="none" stroke="#000000" points="0,-204.7 0,-296.7 152.0758,-296.7 152.0758,-204.7 0,-204.7"/>
<text text-anchor="middle" x="76.0379" y="-280.1" font-family="Times,serif" font-size="14.00" fill="#000000">server</text>
<text text-anchor="middle" x="76.0379" y="-263.3" font-family="Times,serif" font-size="14.00" fill="#000000">Receipt data : 3(300.0)</text>
<text text-anchor="middle" x="76.0379" y="-246.5" font-family="Times,serif" font-size="14.00" fill="#000000">Transmit data : 3(300.0)</text>
<text text-anchor="middle" x="76.0379" y="-229.7" font-family="Times,serif" font-size="14.00" fill="#000000">Processed data :0(0.0)</text>
<text text-anchor="middle" x="76.0379" y="-212.9" font-family="Times,serif" font-size="14.00" fill="#000000">Expired data :0</text>
</g>
<!-- device&#45;&gt;server -->
<g id="edge1" class="edge">
<title>device&#45;&gt;server</title>
<path fill="none" stroke="#000000" d="M76.0379,-333.4924C76.0379,-324.9706 76.0379,-315.9844 76.0379,-307.1993"/>
<polygon fill="#000000" stroke="#000000" points="79.538,-307.0185 76.0379,-297.0186 72.538,-307.0186 79.538,-307.0185"/>
</g>
<!-- cluster -->
<g id="node3" class="node">
<title>cluster</title>
<polygon fill="none" stroke="#000000" points="3.8913,-75.7 3.8913,-167.7 148.1845,-167.7 148.1845,-75.7 3.8913,-75.7"/>
<text text-anchor="middle" x="76.0379" y="-151.1" font-family="Times,serif" font-size="14.00" fill="#000000">cluster</text>
<text text-anchor="middle" x="76.0379" y="-134.3" font-family="Times,serif" font-size="14.00" fill="#000000">Receipt data : 3(300.0)</text>
<text text-anchor="middle" x="76.0379" y="-117.5" font-family="Times,serif" font-size="14.00" fill="#000000">Transmit data : 0(0.0)</text>
<text text-anchor="middle" x="76.0379" y="-100.7" font-family="Times,serif" font-size="14.00" fill="#000000">Processed data :0(0.0)</text>
<text text-anchor="middle" x="76.0379" y="-83.9" font-family="Times,serif" font-size="14.00" fill="#000000">Expired data :0</text>
</g>
<!-- server&#45;&gt;cluster -->
<g id="edge2" class="edge">
<title>server&#45;&gt;cluster</title>
<path fill="none" stroke="#000000" d="M76.0379,-204.4924C76.0379,-195.9706 76.0379,-186.9844 76.0379,-178.1993"/>
<polygon fill="#000000" stroke="#000000" points="79.538,-178.0185 76.0379,-168.0186 72.538,-178.0186 79.538,-178.0185"/>
</g>
</g>
</svg>
